<svg version="1.1" id="Layer_1" xmlns:x="ns_extend;" xmlns:i="ns_ai;" xmlns:graph="ns_graphs;" xmlns="http://www.w3.org/2000/svg" xmlns:xlink="http://www.w3.org/1999/xlink" x="0px" y="0px" viewBox="0 0 50 50" style="enable-background:new 0 0 50 50;" xml:space="preserve">
 <style type="text/css">
  .st0{fill:#E01B2A;}
	.st1{fill:#FFFFFF;}
 </style>
 <metadata>
  <sfw xmlns="ns_sfw;">
   <slices>
   </slices>
   <sliceSourceBounds bottomLeftOrigin="true" height="50" width="50" x="1755.3" y="-39.3">
   </sliceSourceBounds>
  </sfw>
 </metadata>
 <g id="Group_1628">
  <path id="Rectangle_24501" class="st0" d="M24.5,0h1C39,0,50,11,50,24.5v1C50,39,39,50,25.5,50h-1C11,50,0,39,0,25.5v-1
		C0,11,11,0,24.5,0z">
  </path>
  <rect id="Rectangle_24502" x="13.4" y="11.4" class="st1" width="13.1" height="7">
  </rect>
  <rect id="Rectangle_24503" x="13.4" y="31.6" class="st1" width="19.7" height="7">
  </rect>
  <path id="Path_1215" class="st1" d="M38.3,28.5H13.3v-7h24.9c0.6,0,1.1,0.4,1.2,1c0.1,0.2,0.1,0.5,0.1,0.7h-0.9c0-0.1,0-0.3,0-0.4
		c0-0.3-0.2-0.4-0.4-0.4c-0.2,0-0.4,0.2-0.4,0.6c0,0.4,0,0.5,0.7,1.5l0.5,0.7c0.4,0.6,0.6,1.2,0.7,1.9c0.1,0.7-0.4,1.3-1.1,1.4
		C38.5,28.5,38.4,28.5,38.3,28.5L38.3,28.5z">
  </path>
 </g>
</svg>